<svg xmlns="http://www.w3.org/2000/svg" viewBox="0 0 379 102"><style>.style0{fill:	#2E2A25;}.style1{fill:	#5D5955;}.style2{fill:	#908C89;}.style3{fill:	#F42534;}</style><path d="M148.739 30.416c-4.302-1.689-6.664-2.445-11.05-2.445c-4.727 0-10.293 1.689-10.293 7.8 c0 11.3 25.3 8.7 25.3 28.088c0 12.572-9.701 17.545-21.511 17.545c-4.134 0-8.185-1.18-12.062-2.443l0.842-7.844 c2.868 1.2 7.9 2.9 12.2 2.865c4.811 0 11.556-2.697 11.556-9.617c0-13.153-25.306-9.529-25.306-27.833 c0-10.462 8.268-16.029 18.893-16.029c3.882 0 8.5 0.7 12.6 2.109L148.739 30.416z" class="style0"/><path d="M178.695 36.402c13.073 0 21.8 9.4 21.8 22.524c0 12.318-8.941 22.525-21.846 22.5 c-12.99 0-21.936-10.207-21.936-22.525C156.759 45.9 165.5 36.4 178.7 36.4 M178.695 75 c9.276 0 13.411-8.436 13.411-16.111c0-8.18-4.979-16.108-13.411-16.108c-8.52 0-13.495 7.928-13.495 16.1 C165.2 66.6 169.3 75 178.7 75" class="style0"/><path d="M234.711 44.67c-3.033-1.265-6.07-1.853-8.605-1.853c-8.855 0-13.83 7.928-13.83 16.1 c0 7.7 4.1 16.1 14.3 16.111c2.697 0 6.07-0.844 8.52-2.443l0.588 7.086c-3.289 1.516-7.082 1.771-9.951 1.8 c-12.99 0-21.932-10.207-21.932-22.525c0-13.075 8.773-22.524 21.932-22.524c3.205 0 7.3 0.8 9.6 1.689L234.711 44.67z" class="style0"/><path d="M241.047 37.414h7.42v6.668h0.172c2.105-4.475 6.664-7.681 11.217-7.681c2.361 0 3.5 0.3 5.2 0.6 v7.087c-1.438-0.592-3.039-0.76-4.387-0.76c-7.088 0-11.727 6.747-11.727 17.545v19.568h-7.928V37.414z" class="style0"/><path d="M272.09 40.457c3.967-2.366 8.689-4.055 14.176-4.055c12.314 0 17.3 6.1 17.3 17.801v17.795 c0 4.9 0.2 7.2 0.3 8.438h-7.424v-5.566h-0.168c-1.855 2.619-6.074 6.578-13.33 6.6 c-9.275 0-15.771-4.045-15.771-13.408c0-10.799 11.811-14.172 19.988-14.172c3.123 0 5.3 0 8.4 0.2 c0-7.424-2.697-11.222-10.629-11.222c-4.471 0-9.277 1.689-12.482 4.386L272.09 40.457z M295.627 59.9 c-1.686 0-3.375-0.166-5.062-0.166c-4.299 0-14.928 0.672-14.928 8.266c0 4.6 4.4 7 8 7 c7.844 0 11.979-4.891 11.979-11.301V59.939z" class="style0"/><path d="M336.039 43.826h-11.385v23.541c0 5 3 7.7 6.7 7.67c2.445 0 4.221-0.754 5.4-1.516v6.746 c-1.773 0.51-4.219 1.18-6.748 1.18c-8.184 0-13.246-3.877-13.246-12.48V43.826h-9.701v-6.412h9.701v-9.953l7.932-2.528v12.481 h11.385V43.826z" class="style0"/><path d="M344.229 40.457c3.967-2.366 8.689-4.055 14.172-4.055c12.312 0 17.3 6.1 17.3 17.801v17.795 c0 4.9 0.2 7.2 0.3 8.438h-7.424v-5.566h-0.168c-1.852 2.619-6.07 6.578-13.326 6.6 c-9.281 0-15.775-4.045-15.775-13.408c0-10.799 11.811-14.172 19.994-14.172c3.121 0 5.3 0 8.4 0.2 c0-7.424-2.703-11.222-10.631-11.222c-4.469 0-9.281 1.689-12.486 4.386L344.229 40.457z M367.766 59.9 c-1.689 0-3.375-0.166-5.062-0.166c-4.303 0-14.932 0.672-14.932 8.266c0 4.6 4.4 7 8 7 c7.844 0 11.979-4.891 11.979-11.301V59.939z" class="style0"/><path d="M96.203 30.528l-1.083 0.513L89.53 33.7c2.483 5.4 3.9 11.3 3.9 17.6 c0 23.307-18.959 42.266-42.266 42.266c-23.31 0-42.277-18.959-42.277-42.266c0-23.312 18.967-42.274 42.277-42.274 c4.893 0 9.6 0.8 14 2.379l2.032-5.836l0.395-1.135C62.397 2.7 56.9 1.7 51.1 1.7 c-27.383 0-49.659 22.276-49.659 49.661C1.481 78.7 23.8 101 51.1 101c27.378 0 49.649-22.275 49.649-49.653 C100.789 43.9 99.1 36.9 96.2 30.528z" class="style0"/><path d="M62.611 18.62c-3.597-1.222-7.456-1.899-11.469-1.899c-19.392 0-35.173 15.533-35.173 34.6 c0 19.1 15.8 34.6 35.2 34.636c19.388 0 35.162-15.537 35.162-34.636c0-5.193-1.174-10.12-3.269-14.552l-1.125 0.5 l-5.698 2.716c1.625 3.4 2.6 7.3 2.6 11.305c0 14.941-12.393 27.105-27.628 27.105c-15.237 0-27.637-12.164-27.637-27.105 c0-14.935 12.4-27.086 27.637-27.086c3.15 0 6.2 0.5 9 1.502l2.071-5.958L62.611 18.62z" class="style1"/><path d="M51.138 64.115c-7.363-0.012-13.311-5.955-13.324-13.322c0.014-7.36 5.963-13.309 13.324-13.318 c1.624 0 3.2 0.3 4.6 0.845l2.39-6.864c-2.191-0.793-4.543-1.25-7.006-1.25c-11.376 0.004-20.589 9.215-20.589 20.6 c0 11.4 9.2 20.6 20.6 20.589c11.371 0 20.586-9.209 20.586-20.589h0.005c-0.005-2.792-0.567-5.446-1.57-7.877 l-6.591 3.136c0.564 1.5 0.9 3.1 0.9 4.742C64.445 58.2 58.5 64.1 51.1 64.115z" class="style2"/><path d="M61.552 40.248l37.343-17.755C93.277 13.2 85 5.7 75.2 1L61.552 40.248z" class="style3"/></svg>